# xmcd
#
# Track frame offsets:
#	150
#	7283
#	15755
#	29045
#	62818
#	90965
#	109115
#	122271
#	148440
#	174886
#	181979
#	207042
#
# Disc length: 2768 seconds
#
# Revision: 1
# Processed by: cddbd v1.5.2PL0 Copyright (c) Steve Scherf et al.
# Submitted via: audiograbber 1.83.01
#
DISCID=970ace0c
DTITLE=Ben Tiggelaar - Management Classics - De ideeën van Philip Kotler over m
DTITLE=arketing
DYEAR=2009
DGENRE=Other
TTITLE0=Welkom
TTITLE1=Wie is Philip Kotler eigenlijk?
TTITLE2=De visie van Philip Kotler
TTITLE3=Marketing: de klant centraal
TTITLE4=Het product
TTITLE5=De prijs
TTITLE6=De plaats
TTITLE7=De promotie
TTITLE8=Bijzondere vormen van marketing volgens Kotler
TTITLE9=Lof en kritiek
TTITLE10=De praktische waarde van Kotlers ideeën
TTITLE11=Data Track
EXTD=Management Literature
EXTT0=
EXTT1=
EXTT2=
EXTT3=
EXTT4=
EXTT5=
EXTT6=
EXTT7=
EXTT8=
EXTT9=
EXTT10=
EXTT11=
PLAYORDER=
